<svg xmlns="http://www.w3.org/2000/svg" width="555" height="210" viewBox="0 0 555 210">
<g>
<path d="M 235.15 149.95 C231.43,152.56 226.19,153.15 221.50,151.50 C215.81,149.48 213.00,145.88 213.00,140.58 C213.00,132.30 218.22,129.02 231.36,129.01 L 238.22 129.00 L 237.53 126.25 C235.79,119.22 228.52,116.91 220.70,120.90 C216.99,122.79 216.97,122.79 215.49,120.68 C213.32,117.59 213.56,117.10 218.25,114.97 C224.05,112.34 234.36,112.31 238.63,114.92 C243.76,118.05 245.12,123.26 244.79,138.50 L 244.50 151.50 L 241.68 151.82 C239.53,152.07 238.72,151.66 238.32,150.12 C237.80,148.13 237.74,148.13 235.15,149.95 ZM 319.90 149.59 C316.05,153.08 307.07,153.08 301.77,149.59 C300.18,148.55 298.61,146.27 298.02,144.15 C296.72,139.44 296.72,139.39 298.58,135.48 C300.66,131.09 305.96,129.00 315.02,129.00 C321.83,129.00 322.00,128.94 322.00,126.45 C322.00,125.05 320.90,122.80 319.55,121.45 C316.62,118.53 312.25,118.26 305.40,120.59 C301.53,121.90 300.58,121.94 299.86,120.84 C296.91,116.25 303.45,112.78 314.24,113.21 C321.43,113.49 322.20,113.74 325.19,116.73 L 328.41 119.95 L 329.17 135.13 C329.58,143.49 329.69,150.70 329.40,151.16 C329.12,151.62 327.56,152.00 325.94,152.00 C323.67,152.00 323.00,151.55 323.00,150.00 C323.00,147.59 322.23,147.48 319.90,149.59 ZM 193.77 150.00 C189.51,152.60 181.61,152.67 177.46,150.14 C171.31,146.39 170.54,144.01 170.16,127.75 L 169.82 113.00 L 178.00 113.00 L 178.00 126.44 C178.00,139.18 178.13,140.03 180.39,142.67 C182.31,144.90 183.63,145.45 187.00,145.45 C190.48,145.45 191.70,144.90 194.10,142.21 C196.98,138.99 197.00,138.90 197.00,125.98 L 197.00 113.00 L 205.04 113.00 L 204.50 151.50 L 201.25 151.81 C198.53,152.08 198.00,151.79 198.00,150.06 C198.00,147.52 197.83,147.52 193.77,150.00 ZM 262.01 141.25 L 262.00 152.00 L 255.00 152.00 L 255.00 113.00 L 258.50 113.00 C261.33,113.00 262.00,113.38 262.00,115.00 L 262.00 117.00 L 265.74 115.00 C268.26,113.65 271.38,113.00 275.35,113.00 C280.83,113.00 281.50,113.26 285.02,116.78 C289.48,121.24 290.31,125.52 289.81,141.50 L 289.50 151.50 L 282.50 151.50 L 282.00 137.66 C281.50,123.89 281.49,123.81 278.60,121.33 C276.21,119.28 275.06,118.95 272.10,119.49 C263.68,121.03 262.01,124.62 262.01,141.25 ZM 347.00 139.65 L 347.00 152.00 L 340.00 152.00 L 340.00 113.00 L 343.50 113.00 C346.27,113.00 347.00,113.40 347.00,114.89 C347.00,116.74 347.09,116.74 350.75,114.83 C355.70,112.24 365.82,112.64 369.08,115.54 C373.15,119.17 374.00,123.06 374.00,137.97 L 374.00 152.00 L 367.00 152.00 L 367.00 139.25 C366.99,128.50 366.69,126.01 365.10,123.40 C361.68,117.78 353.22,118.09 349.25,123.97 C347.22,126.97 347.00,128.49 347.00,139.65 ZM 453.30 149.57 C446.35,154.29 436.44,152.05 431.99,144.76 C430.26,141.91 430.01,139.71 430.00,127.25 L 430.00 113.00 L 437.00 113.00 L 437.00 125.45 C437.00,139.16 437.86,142.36 442.15,144.57 C445.83,146.48 447.89,146.37 451.69,144.05 C455.88,141.49 456.99,137.26 456.99,123.75 L 457.00 113.00 L 464.00 113.00 L 464.00 152.13 L 460.75 151.81 C458.29,151.58 457.42,150.97 457.19,149.32 L 456.88 147.14 ZM 521.00 146.00 L 521.00 152.00 L 505.97 152.00 C485.45,152.00 485.32,151.46 501.06,132.00 L 511.17 119.50 L 500.59 119.22 L 490.00 118.93 L 490.00 112.95 L 505.25 113.22 C519.64,113.48 520.52,113.61 520.77,115.50 C520.95,116.79 517.30,122.21 510.52,130.72 C504.73,137.99 500.00,144.40 500.00,144.97 C500.00,145.61 503.97,146.00 510.50,146.00 ZM 154.88 164.37 C152.11,166.31 144.11,166.54 141.71,164.75 C140.57,163.90 140.23,162.74 140.66,161.15 C141.21,159.07 141.72,158.86 144.89,159.36 C152.23,160.53 153.00,158.01 153.00,132.93 L 153.00 113.00 L 160.00 113.00 L 160.00 134.53 C160.00,157.66 159.39,161.21 154.88,164.37 ZM 411.00 138.16 L 410.50 151.50 L 407.46 151.80 C405.79,151.96 404.11,151.77 403.71,151.38 C403.32,150.99 403.00,142.19 403.00,131.83 L 403.00 113.00 L 406.50 113.00 C409.33,113.00 410.00,113.38 410.00,115.00 C410.00,117.47 410.18,117.47 414.23,115.00 C416.03,113.91 418.74,113.01 420.25,113.00 C422.73,113.00 423.00,113.35 423.00,116.50 C423.00,119.71 422.75,120.00 420.06,120.00 C418.39,120.00 415.90,121.04 414.31,122.41 C411.55,124.78 411.49,125.05 411.00,138.16 ZM 482.00 113.00 L 482.00 152.00 L 479.17 152.00 C477.61,152.00 476.03,151.70 475.67,151.33 C475.30,150.97 475.00,142.19 475.00,131.83 L 475.00 113.00 ZM 223.25 145.01 C225.04,146.10 227.22,146.99 228.10,147.00 C230.82,147.00 236.30,142.65 237.27,139.72 C238.95,134.63 237.89,133.91 229.78,134.63 C221.39,135.37 220.00,136.15 220.00,140.14 C220.00,142.33 220.79,143.51 223.25,145.01 ZM 308.40 145.57 C312.32,147.28 312.39,147.28 316.45,145.58 C320.21,144.01 322.00,141.43 322.00,137.57 C322.00,135.04 321.88,135.00 314.52,135.00 C307.85,135.00 306.89,135.24 305.56,137.27 C303.47,140.45 304.67,143.95 308.40,145.57 ZM 159.80 104.80 C157.98,106.62 154.53,106.24 152.50,104.00 C151.00,102.34 150.88,101.56 151.82,99.50 C153.85,95.03 161.00,96.60 161.00,101.50 C161.00,102.65 160.46,104.14 159.80,104.80 ZM 481.95 104.56 C479.37,107.67 473.98,105.63 474.02,101.55 C474.04,98.07 475.49,96.83 479.10,97.18 C481.99,97.45 482.55,97.92 482.82,100.31 C483.00,101.86 482.61,103.77 481.95,104.56 Z" fill="rgb(58,58,57)"/>
<path d="M 91.28 147.75 L 90.76 166.00 L 85.35 166.00 C79.00,166.00 78.49,165.29 79.26,157.68 C80.52,145.23 76.74,126.55 71.92,121.41 C70.55,119.95 68.05,118.92 64.83,118.48 C57.87,117.52 46.74,111.72 43.18,107.21 C36.76,99.05 32.75,88.00 31.41,74.75 L 30.72 68.00 L 35.61 68.01 C42.18,68.02 55.85,71.39 62.04,74.52 C73.91,80.54 79.99,89.85 80.79,103.25 C81.05,107.55 80.85,111.00 80.35,111.00 C79.85,111.00 77.17,108.41 74.38,105.25 C71.59,102.09 66.43,97.48 62.91,95.02 L 56.50 90.54 L 59.64 94.52 C61.37,96.71 63.79,99.40 65.02,100.50 C68.27,103.41 79.42,117.91 81.55,122.00 L 83.37 125.50 L 84.32 122.00 C90.53,99.08 98.39,85.32 118.00,63.07 C121.91,58.63 124.83,55.00 124.48,55.00 C122.66,55.00 111.02,65.22 101.71,75.01 L 91.14 86.12 L 90.44 81.45 C87.90,64.52 96.61,47.24 111.71,39.26 C120.52,34.60 134.59,30.52 148.40,28.62 L 152.30 28.08 L 151.66 37.79 C149.59,69.58 135.51,88.69 110.94,93.08 L 103.73 94.37 L 99.82 102.51 C94.07,114.49 91.91,125.94 91.28,147.75 Z" fill="rgb(131,150,89)"/>
<path d="M 0.00 105.00 L 0.00 0.00 L 277.50 0.00 L 555.00 0.00 L 555.00 105.00 L 555.00 210.00 L 277.50 210.00 L 0.00 210.00 L 0.00 105.00 ZM 91.28 147.75 C91.91,125.94 94.07,114.49 99.82,102.51 L 103.73 94.37 L 110.94 93.08 C135.51,88.69 149.59,69.58 151.66,37.79 L 152.30 28.08 L 148.40 28.62 C134.59,30.52 120.52,34.60 111.71,39.26 C96.61,47.24 87.90,64.52 90.44,81.45 L 91.14 86.12 L 101.71 75.01 C111.02,65.22 122.66,55.00 124.48,55.00 C124.83,55.00 121.91,58.63 118.00,63.07 C98.39,85.32 90.53,99.08 84.32,122.00 L 83.37 125.50 L 81.55 122.00 C79.42,117.91 68.27,103.41 65.02,100.50 C63.79,99.40 61.37,96.71 59.64,94.52 L 56.50 90.54 L 62.91 95.02 C66.43,97.48 71.59,102.09 74.38,105.25 C77.17,108.41 79.85,111.00 80.35,111.00 C80.85,111.00 81.05,107.55 80.79,103.25 C79.99,89.85 73.91,80.54 62.04,74.52 C55.85,71.39 42.18,68.02 35.61,68.01 L 30.72 68.00 L 31.41 74.75 C32.75,88.00 36.76,99.05 43.18,107.21 C46.74,111.72 57.87,117.52 64.83,118.48 C68.05,118.92 70.55,119.95 71.92,121.41 C76.74,126.55 80.52,145.23 79.26,157.68 C78.49,165.29 79.00,166.00 85.35,166.00 L 90.76 166.00 L 91.28 147.75 ZM 154.88 164.37 C159.39,161.21 160.00,157.66 160.00,134.53 L 160.00 113.00 L 156.50 113.00 L 153.00 113.00 L 153.00 132.93 C153.00,158.01 152.23,160.53 144.89,159.36 C141.72,158.86 141.21,159.07 140.66,161.15 C140.23,162.74 140.57,163.90 141.71,164.75 C144.11,166.54 152.11,166.31 154.88,164.37 ZM 235.15 149.95 C237.74,148.13 237.80,148.13 238.32,150.12 C238.72,151.66 239.53,152.07 241.68,151.82 L 244.50 151.50 L 244.79 138.50 C245.12,123.26 243.76,118.05 238.63,114.92 C234.36,112.31 224.05,112.34 218.25,114.97 C213.56,117.10 213.32,117.59 215.49,120.68 C216.97,122.79 216.99,122.79 220.70,120.90 C228.52,116.91 235.79,119.22 237.53,126.25 L 238.22 129.00 L 231.36 129.01 C218.22,129.02 213.00,132.30 213.00,140.58 C213.00,145.88 215.81,149.48 221.50,151.50 C226.19,153.15 231.43,152.56 235.15,149.95 ZM 319.90 149.59 C322.23,147.48 323.00,147.59 323.00,150.00 C323.00,151.55 323.67,152.00 325.94,152.00 C327.56,152.00 329.12,151.62 329.40,151.16 C329.69,150.70 329.58,143.49 329.17,135.13 L 328.41 119.95 L 325.19 116.73 C322.20,113.74 321.43,113.49 314.24,113.21 C303.45,112.78 296.91,116.25 299.86,120.84 C300.58,121.94 301.53,121.90 305.40,120.59 C312.25,118.26 316.62,118.53 319.55,121.45 C320.90,122.80 322.00,125.05 322.00,126.45 C322.00,128.94 321.83,129.00 315.02,129.00 C305.96,129.00 300.66,131.09 298.58,135.48 C296.72,139.39 296.72,139.44 298.02,144.15 C298.61,146.27 300.18,148.55 301.77,149.59 C307.07,153.08 316.05,153.08 319.90,149.59 ZM 193.77 150.00 C197.83,147.52 198.00,147.52 198.00,150.06 C198.00,151.79 198.53,152.08 201.25,151.81 L 204.50 151.50 L 204.77 132.25 L 205.04 113.00 L 201.02 113.00 L 197.00 113.00 L 197.00 125.98 C197.00,138.90 196.98,138.99 194.10,142.21 C191.70,144.90 190.48,145.45 187.00,145.45 C183.63,145.45 182.31,144.90 180.39,142.67 C178.13,140.03 178.00,139.18 178.00,126.44 L 178.00 113.00 L 173.91 113.00 L 169.82 113.00 L 170.16 127.75 C170.54,144.01 171.31,146.39 177.46,150.14 C181.61,152.67 189.51,152.60 193.77,150.00 ZM 262.01 141.25 C262.01,124.62 263.68,121.03 272.10,119.49 C275.06,118.95 276.21,119.28 278.60,121.33 C281.49,123.81 281.50,123.89 282.00,137.66 L 282.50 151.50 L 286.00 151.50 L 289.50 151.50 L 289.81 141.50 C290.31,125.52 289.48,121.24 285.02,116.78 C281.50,113.26 280.83,113.00 275.35,113.00 C271.38,113.00 268.26,113.65 265.74,115.00 L 262.00 117.00 L 262.00 115.00 C262.00,113.38 261.33,113.00 258.50,113.00 L 255.00 113.00 L 255.00 132.50 L 255.00 152.00 L 258.50 152.00 L 262.00 152.00 L 262.01 141.25 ZM 347.00 139.65 C347.00,128.49 347.22,126.97 349.25,123.97 C353.22,118.09 361.68,117.78 365.10,123.40 C366.69,126.01 366.99,128.50 367.00,139.25 L 367.00 152.00 L 370.50 152.00 L 374.00 152.00 L 374.00 137.97 C374.00,123.06 373.15,119.17 369.08,115.54 C365.82,112.64 355.70,112.24 350.75,114.83 C347.09,116.74 347.00,116.74 347.00,114.89 C347.00,113.40 346.27,113.00 343.50,113.00 L 340.00 113.00 L 340.00 132.50 L 340.00 152.00 L 343.50 152.00 L 347.00 152.00 L 347.00 139.65 ZM 411.00 138.16 C411.49,125.05 411.55,124.78 414.31,122.41 C415.90,121.04 418.39,120.00 420.06,120.00 C422.75,120.00 423.00,119.71 423.00,116.50 C423.00,113.35 422.73,113.00 420.25,113.00 C418.74,113.01 416.03,113.91 414.23,115.00 C410.18,117.47 410.00,117.47 410.00,115.00 C410.00,113.38 409.33,113.00 406.50,113.00 L 403.00 113.00 L 403.00 131.83 C403.00,142.19 403.32,150.99 403.71,151.38 C404.11,151.77 405.79,151.96 407.46,151.80 L 410.50 151.50 L 411.00 138.16 ZM 453.30 149.57 L 456.88 147.14 L 457.19 149.32 C457.42,150.97 458.29,151.58 460.75,151.81 L 464.00 152.13 L 464.00 132.56 L 464.00 113.00 L 460.50 113.00 L 457.00 113.00 L 456.99 123.75 C456.99,137.26 455.88,141.49 451.69,144.05 C447.89,146.37 445.83,146.48 442.15,144.57 C437.86,142.36 437.00,139.16 437.00,125.45 L 437.00 113.00 L 433.50 113.00 L 430.00 113.00 L 430.00 127.25 C430.01,139.71 430.26,141.91 431.99,144.76 C436.44,152.05 446.35,154.29 453.30,149.57 ZM 482.00 132.50 L 482.00 113.00 L 478.50 113.00 L 475.00 113.00 L 475.00 131.83 C475.00,142.19 475.30,150.97 475.67,151.33 C476.03,151.70 477.61,152.00 479.17,152.00 L 482.00 152.00 L 482.00 132.50 ZM 521.00 149.00 L 521.00 146.00 L 510.50 146.00 C503.97,146.00 500.00,145.61 500.00,144.97 C500.00,144.40 504.73,137.99 510.52,130.72 C517.30,122.21 520.95,116.79 520.77,115.50 C520.52,113.61 519.64,113.48 505.25,113.22 L 490.00 112.95 L 490.00 115.94 L 490.00 118.93 L 500.59 119.22 L 511.17 119.50 L 501.06 132.00 C485.32,151.46 485.45,152.00 505.97,152.00 L 521.00 152.00 L 521.00 149.00 ZM 159.80 104.80 C160.46,104.14 161.00,102.65 161.00,101.50 C161.00,96.60 153.85,95.03 151.82,99.50 C150.88,101.56 151.00,102.34 152.50,104.00 C154.53,106.24 157.98,106.62 159.80,104.80 ZM 481.95 104.56 C482.61,103.77 483.00,101.86 482.82,100.31 C482.55,97.92 481.99,97.45 479.10,97.18 C475.49,96.83 474.04,98.07 474.02,101.55 C473.98,105.63 479.37,107.67 481.95,104.56 ZM 223.25 145.01 C220.79,143.51 220.00,142.33 220.00,140.14 C220.00,136.15 221.39,135.37 229.78,134.63 C237.89,133.91 238.95,134.63 237.27,139.72 C236.30,142.65 230.82,147.00 228.10,147.00 C227.22,146.99 225.04,146.10 223.25,145.01 ZM 308.40 145.57 C304.67,143.95 303.47,140.45 305.56,137.27 C306.89,135.24 307.85,135.00 314.52,135.00 C321.88,135.00 322.00,135.04 322.00,137.57 C322.00,141.43 320.21,144.01 316.45,145.58 C312.39,147.28 312.32,147.28 308.40,145.57 Z" fill="rgb(254,254,254)"/>
</g>
</svg>