<svg xmlns="http://www.w3.org/2000/svg" width="160" height="163" viewBox="0 0 160 163">
<g>
<path d="M 83.12 131.00 L 82.50 147.50 L 77.96 147.80 C75.47,147.96 73.10,147.77 72.71,147.38 C72.32,146.99 71.99,141.90 71.98,136.08 C71.96,123.42 70.09,113.77 66.30,106.79 C63.58,101.78 63.33,101.60 57.32,100.40 C43.44,97.61 35.79,91.84 29.93,79.73 C26.49,72.61 25.48,68.58 23.55,54.25 C22.99,50.10 23.04,50.00 25.86,50.00 C32.35,50.00 46.92,53.28 53.14,56.14 C65.43,61.79 71.92,71.24 72.79,84.75 C73.06,88.80 72.86,92.00 72.35,92.00 C71.85,92.00 68.75,89.26 65.47,85.91 C59.78,80.11 52.03,74.00 50.36,74.00 C49.93,74.00 51.41,75.91 53.64,78.25 C59.76,84.66 67.90,94.81 72.05,101.21 C75.69,106.83 77.00,107.51 77.00,103.76 C77.00,99.61 83.58,82.35 87.92,75.14 C93.42,65.99 101.59,55.02 109.91,45.59 C113.27,41.79 115.80,38.47 115.53,38.20 C114.53,37.20 103.40,46.81 93.90,56.90 C88.48,62.66 83.71,67.04 83.30,66.64 C82.90,66.23 82.60,61.99 82.63,57.20 C82.72,45.28 85.38,38.52 93.21,30.36 C99.58,23.72 106.77,19.44 117.00,16.17 C124.53,13.77 137.70,11.00 141.60,11.00 L 144.29 11.00 L 143.70 20.75 C142.38,42.77 133.88,60.10 120.04,68.98 C117.31,70.73 111.40,73.03 106.36,74.31 C101.49,75.55 96.88,76.94 96.12,77.42 C93.98,78.75 88.43,91.74 86.69,99.50 C84.07,111.15 83.76,113.86 83.12,131.00 Z" fill="rgb(125,146,79)"/>
<path d="M 0.00 81.50 L 0.00 0.00 L 80.00 0.00 L 160.00 0.00 L 160.00 81.50 L 160.00 163.00 L 80.00 163.00 L 0.00 163.00 L 0.00 81.50 ZM 83.12 131.00 C83.76,113.86 84.07,111.15 86.69,99.50 C88.43,91.74 93.98,78.75 96.12,77.42 C96.88,76.94 101.49,75.55 106.36,74.31 C111.40,73.03 117.31,70.73 120.04,68.98 C133.88,60.10 142.38,42.77 143.70,20.75 L 144.29 11.00 L 141.60 11.00 C137.70,11.00 124.53,13.77 117.00,16.17 C106.77,19.44 99.58,23.72 93.21,30.36 C85.38,38.52 82.72,45.28 82.63,57.20 C82.60,61.99 82.90,66.23 83.30,66.64 C83.71,67.04 88.48,62.66 93.90,56.90 C103.40,46.81 114.53,37.20 115.53,38.20 C115.80,38.47 113.27,41.79 109.91,45.59 C101.59,55.02 93.42,65.99 87.92,75.14 C83.58,82.35 77.00,99.61 77.00,103.76 C77.00,107.51 75.69,106.83 72.05,101.21 C67.90,94.81 59.76,84.66 53.64,78.25 C51.41,75.91 49.93,74.00 50.36,74.00 C52.03,74.00 59.78,80.11 65.47,85.91 C68.75,89.26 71.85,92.00 72.35,92.00 C72.86,92.00 73.06,88.80 72.79,84.75 C71.92,71.24 65.43,61.79 53.14,56.14 C46.92,53.28 32.35,50.00 25.86,50.00 C23.04,50.00 22.99,50.10 23.55,54.25 C25.48,68.58 26.49,72.61 29.93,79.73 C35.79,91.84 43.44,97.61 57.32,100.40 C63.33,101.60 63.58,101.78 66.30,106.79 C70.09,113.77 71.96,123.42 71.98,136.08 C71.99,141.90 72.32,146.99 72.71,147.38 C73.10,147.77 75.47,147.96 77.96,147.80 L 82.50 147.50 L 83.12 131.00 Z" fill="rgb(254,254,254)"/>
</g>
</svg>